# AST/ASF file generated using VICON BodyLanguage
# -----------------------------------------------
:version 1.10
:name VICON
:units
  mass 1.0
  length 0.45
  angle deg
:documentation
   .ast/.asf automatically generated from VICON data using
   VICON BodyBuilder and BodyLanguage model FoxedUp or BRILLIANT.MOD
:root
   order TX TY TZ RX RY RZ
   axis XYZ
   position 0 0 0  
   orientation 0 0 0 
:bonedata
  begin
     id 1 
     name lhipjoint
     direction 0.643824 -0.71708 0.266994 
     length 2.52133 
     axis 0 0 0  XYZ
  end
  begin
     id 2 
     name lfemur
     direction 0.34202 -0.939693 0  
     length 7.51824  
     axis 0 0 20  XYZ
    dof rx ry rz
    limits (-160.0 20.0)
           (-70.0 70.0)
           (-60.0 70.0)
  end
  begin
     id 3 
     name ltibia
     direction 0.34202 -0.939693 0   
     length 7.3685   
     axis 0 0 20   XYZ
    dof rx
    limits (-10.0 170.0)
  end
  begin
     id 4 
     name lfoot
     direction 0.105419 -0.289636 0.951314   
     length 2.20972   
     axis -90 7.62852e-016 20   XYZ
    dof rx rz
    limits (-45.0 90.0)
           (-70.0 20.0)
  end
  begin
     id 5 
     name ltoes
     direction 1.53549e-011 -4.21833e-011 1   
     length 1.10139   
     axis -90 7.62852e-016 20   XYZ
    dof rx
    limits (-90.0 20.0)
  end
  begin
     id 6 
     name rhipjoint
     direction -0.608823 -0.743445 0.276811   
     length 2.43192  
     axis 0 0 0  XYZ 
  end
  begin
     id 7 
     name rfemur
     direction -0.34202 -0.939693 0   
     length 7.69715   
     axis 0 0 -20   XYZ
    dof rx ry rz
    limits (-160.0 20.0)
           (-70.0 70.0)
           (-70.0 60.0)
  end
  begin
     id 8 
     name rtibia
     direction -0.34202 -0.939693 0   
     length 7.44924   
     axis 0 0 -20   XYZ
    dof rx
    limits (-10.0 170.0)
 end
 begin
     id 9 
     name rfoot
     direction -0.103614 -0.284677 0.953007   
     length 2.22623  
     axis -90 -7.62852e-016 -20   XYZ
    dof rx rz
    limits (-45.0 90.0)
           (-20.0 70.0)
  end
  begin
     id 10 
     name rtoes
     direction -1.53537e-011 -4.22026e-011 1   
     length 1.11   
     axis -90 -7.62852e-016 -20   XYZ
    dof rx
    limits (-90.0 20.0)
  end
  begin
     id 11 
     name lowerback
     direction -0.0101212 0.99662 -0.0815298   
     length 2.08277   
     axis 0 0 0   XYZ
    dof rx ry rz
    limits (-20.0 45.0)
           (-30.0 30.0)
           (-30.0 30.0)
  end
  begin
     id 12 
     name upperback
     direction 0.024314 0.999591 -0.0150645   
     length 2.08524   
     axis 0 0 0   XYZ
    dof rx ry rz
    limits (-20.0 45.0)
           (-30.0 30.0)
           (-30.0 30.0)
  end
  begin
     id 13 
     name thorax
     direction 0.0285959 0.999323 0.0231357   
     length 2.09645   
     axis 0 0 0   XYZ
    dof rx ry rz
    limits (-20.0 45.0)
           (-30.0 30.0)
           (-30.0 30.0)
  end
  begin
     id 14 
     name lowerneck
     direction -0.065512 0.979301 0.191515   
     length 1.63798   
     axis 0 0 0   XYZ
    dof rx ry rz
    limits (-20.0 45.0)
           (-30.0 30.0)
           (-30.0 30.0)
  end
  begin
     id 15 
     name upperneck
     direction 0.0498479 0.98191 -0.182667   
     length 1.68731   
     axis 0 0 0   XYZ
    dof rx ry rz
    limits (-20.0 45.0)
           (-30.0 30.0)
           (-30.0 30.0)
  end
  begin
     id 16
     name head
     direction 0.0230358 0.996257 -0.0833175  
     length 1.69785  
     axis 0 0 0   XYZ
    dof rx ry rz
    limits (-20.0 45.0)
           (-30.0 30.0)
           (-30.0 30.0)
  end
  begin
     id 17 
     name lclavicle
     direction 0.967963 0.201165 -0.150269  
     length 3.63976  
     axis 0 0 0   XYZ
    dof ry rz
    limits (-20.0 10.0)
           (0.0 20.0)
  end
  begin
     id 18 
     name lhumerus
     direction 1 -4.48954e-011 -2.92837e-028   
     length 5.32462   
     axis 180 -30 -90   XYZ
    dof rx ry rz
    limits (-60.0 90.0)
           (-90.0 90.0)
           (-90.0 90.0)
  end
  begin
     id 19
     name lradius
     direction 1 -4.48958e-011 -6.39511e-027   
     length 3.48402   
     axis 180 -30 -90   XYZ
    dof rx
    limits (-10.0 170.0)
  end
  begin
     id 20
     name lwrist
     direction 1 -4.48975e-011 -1.1413e-026   
     length 1.74201   
     axis 6.88575e-015 90 90   XYZ
    dof ry
    limits (-180.0 0.0)
 end
  begin
     id 21 
     name lhand
     direction 1 -4.48899e-011 -2.28192e-026   
     length 0.572476   
     axis 1.45643e-014 90 90   XYZ
    dof rx rz
    limits (-90.0 90.0)
           (-45.0 45.0)
  end
  begin
     id 22 
     name lfingers
     direction 1 -4.49155e-011 -4.5684e-026   
     length 0.461545   
     axis 2.91283e-014 90 90   XYZ
    dof rx
    limits (0.0 90.0)
  end
  begin
     id 23
     name lthumb
     direction 0.707107 -6.34943e-011 0.707107   
     length 0.662688   
     axis -90 45 -2.25915e-014   XYZ
    dof rx rz
    limits (-45.0 45.0)
           (-45.0 45.0)
  end
  begin
     id 24 
     name rclavicle
     direction -0.964103 0.264019 -0.0282629   
     length 3.54491  
     axis 0 0 0   XYZ 
    dof ry rz
    limits (-10.0 20.0)
           (-20.0 0.0)
  end
  begin
     id 25 
     name rhumerus
     direction -1 -4.48964e-011 -2.45032e-027  
     length 5.33589   
     axis 180 30 90   XYZ
    dof rx ry rz
    limits (-90.0 60.0)
           (-90.0 90.0)
           (-90.0 90.0)
  end
  begin
     id 26 
     name rradius
     direction -1 -4.48987e-011 -1.55093e-027   
     length 3.64134   
     axis 180 30 90   XYZ
    dof rx
    limits (-10.0 170.0)
  end
  begin
     id 27 
     name rwrist
     direction -1 -4.4897e-011 -1.14128e-026   
     length 1.82067   
     axis 6.88575e-015 -90 -90   XYZ
    dof ry
    limits (-180.0 0.0)
  end
  begin
     id 28
     name rhand
     direction -1 -4.49021e-011 -2.28301e-026   
     length 0.734811   
     axis 1.45643e-014 -90 -90   XYZ
    dof rx rz
    limits (-90.0 90.0)
           (-45.0 45.0)
  end
  begin
     id 29
     name rfingers
     direction -1 -4.48862e-011 -4.56319e-026   
     length 0.592424   
     axis 2.91283e-014 -90 -90   XYZ
    dof rx
    limits (0.0 90.0)
  end
  begin
     id 30
     name rthumb
     direction -0.707107 -6.34978e-011 0.707107   
     length 0.850605   
     axis -90 -45 2.25915e-014   XYZ
    dof rx rz
    limits (-45.0 45.0)
           (-45.0 45.0)
  end
:hierarchy
  begin
    root lhipjoint rhipjoint lowerback
    lhipjoint lfemur
    lfemur ltibia
    ltibia lfoot
    lfoot ltoes
    rhipjoint rfemur
    rfemur rtibia
    rtibia rfoot
    rfoot rtoes
    lowerback upperback
    upperback thorax
    thorax lowerneck lclavicle rclavicle
    lowerneck upperneck
    upperneck head
    lclavicle lhumerus
    lhumerus lradius
    lradius lwrist
    lwrist lhand lthumb
    lhand lfingers
    rclavicle rhumerus
    rhumerus rradius
    rradius rwrist
    rwrist rhand rthumb
    rhand rfingers
  end

#!OML:ASF F:\VICON\USERDATA\INSTALL\rory3\rory3.ASF
:FULLY-SPECIFIED
:DEGREES
348
root -4.50402 17.8425 -5.28814 10.2525 51.9536 6.02791
lowerback 3.56641 4.98039 3.15658
upperback 2.70603 6.74749 3.24593
thorax 0.764906 3.40723 1.38658
lowerneck -12.1838 -13.2301 -11.819
upperneck 30.3042 -17.1118 4.52223
head 13.7681 -8.08225 0.957953
rclavicle -1.18873e-013 -3.18055e-014
rhumerus 2.58633 20.7476 -105.065
rradius 33.6165
rwrist 13.8441
rhand -22.8065 -2.23052
rfingers 7.12502
rthumb 3.62997 -32.1794
lclavicle -1.18873e-013 -3.18055e-014
lhumerus 6.91642 -6.96208 52.1628
lradius 38.4828
lwrist -43.7028
lhand -8.12727 41.5651
lfingers 7.12502
lthumb 17.7864 70.7717
rfemur -13.1085 -8.82051 16.3396
rtibia 34.449
rfoot -31.5319 -18.1705
rtoes 6.10291
lfemur -19.6288 1.35254 -23.2043
ltibia 23.99
lfoot -7.18679 -5.42238
ltoes -10.9569
349
root -4.50138 17.8483 -5.28998 10.3902 52.2197 6.19057
lowerback 3.64728 5.02452 3.03184
upperback 2.71896 6.80681 3.23499
thorax 0.719881 3.43521 1.4342
lowerneck -11.9332 -13.3377 -11.9391
upperneck 30.0895 -17.3384 4.79451
head 13.6908 -8.17023 1.05492
rclavicle -9.58142e-014 -4.13472e-014
rhumerus 2.35849 20.5768 -105.116
rradius 33.7672
rwrist 13.9256
rhand -22.7853 -2.17249
rfingers 7.12502
rthumb 3.65046 -32.121
lclavicle -9.58142e-014 -4.13472e-014
lhumerus 6.622 -6.84299 52.1707
lradius 38.5821
lwrist -43.6005
lhand -8.38594 41.391
lfingers 7.12502
lthumb 17.5375 70.62
rfemur -13.0364 -8.75472 16.2254
rtibia 34.4302
rfoot -31.8411 -18.0329
rtoes 8.10112
lfemur -19.5851 1.37533 -23.3412
ltibia 23.8404
lfoot -7.09694 -5.52749
ltoes -11.3363
350
root -4.49835 17.8596 -5.29212 10.4278 52.49 6.13563
lowerback 3.64048 5.04999 2.98016
upperback 2.70162 6.84082 3.29848
thorax 0.691877 3.45129 1.52521
lowerneck -11.8946 -13.4275 -11.9473
upperneck 30.0357 -17.4748 4.81991
head 13.6774 -8.22831 1.04261
rclavicle -1.06946e-013 6.20208e-014
rhumerus 1.98822 20.6915 -105.04
rradius 34.0567
rwrist 13.6575
rhand -22.9007 -2.31865
rfingers 7.12502
rthumb 3.53899 -32.269
lclavicle -1.06946e-013 6.20208e-014
lhumerus 6.27879 -6.6319 52.2519
lradius 38.6612
lwrist -43.4427
lhand -8.72812 41.499
lfingers 7.12502
lthumb 17.2081 70.7571
rfemur -13.0634 -8.56446 16.2153
rtibia 34.4335
rfoot -32.3934 -17.6763
rtoes 12.4145
lfemur -19.6204 1.44847 -23.3339
ltibia 23.6964
lfoot -7.01767 -5.736
ltoes -11.6537
351
root -4.49465 17.8626 -5.29867 10.4031 52.7535 5.9532
lowerback 3.59445 5.03414 3.1112
upperback 2.66711 6.82285 3.33178
thorax 0.69338 3.44372 1.49107
lowerneck -11.9969 -13.4972 -11.8547
upperneck 30.1098 -17.5598 4.71793
head 13.7165 -8.26212 0.966058
rclavicle 3.45885e-014 -3.18055e-015
rhumerus 1.63554 20.8641 -105.007
rradius 34.3619
rwrist 13.2775
rhand -22.9865 -2.46961
rfingers 7.12502
rthumb 3.45613 -32.4213
lclavicle 3.45885e-014 -3.18055e-015
lhumerus 5.93316 -6.4718 52.2379
lradius 38.7546
lwrist -43.3132
lhand -8.94897 41.6737
lfingers 7.12502
lthumb 16.9956 70.9502
rfemur -13.1649 -8.68111 16.3242
rtibia 34.4322
rfoot -32.5164 -17.5363
rtoes 15.0124
lfemur -19.7188 1.33368 -23.2113
ltibia 23.5831
lfoot -6.92678 -5.95086
ltoes -11.4917
352
root -4.49145 17.8614 -5.30557 10.5054 52.9489 5.99288
lowerback 3.57418 5.03274 3.14184
upperback 2.66113 6.82023 3.27553
thorax 0.708929 3.44291 1.41916
lowerneck -12.0003 -13.5467 -11.7293
upperneck 30.1194 -17.6602 4.71172
head 13.7155 -8.2919 0.926767
rclavicle -1.14102e-013 -1.59028e-015
rhumerus 1.38985 20.7483 -105.025
rradius 34.6369
rwrist 13.2142
rhand -23.055 -2.50593
rfingers 7.12502
rthumb 3.38994 -32.4587
lclavicle -1.14102e-013 -1.59028e-015
lhumerus 5.70182 -6.35534 52.172
lradius 38.9904
lwrist -43.6722
lhand -8.67271 41.8566
lfingers 7.12502
lthumb 17.2615 71.11
rfemur -13.2267 -8.90198 16.3057
rtibia 34.4303
rfoot -32.4893 -17.4905
rtoes 14.9115
lfemur -19.7902 1.18997 -23.2337
ltibia 23.5221
lfoot -6.83542 -6.18097
ltoes -10.8775
353
root -4.48679 17.8631 -5.31214 10.5716 53.1386 5.98625
lowerback 3.49756 5.02323 3.2363
upperback 2.66964 6.8045 3.18768
thorax 0.782091 3.43695 1.28761
lowerneck -11.9473 -13.575 -11.6045
upperneck 30.0548 -17.7562 4.78429
head 13.6794 -8.31436 0.923767
rclavicle -1.34776e-013 -6.36111e-015
rhumerus 1.15146 20.3819 -105.09
rradius 34.9192
rwrist 13.3836
rhand -23.295 -2.34605
rfingers 7.12502
rthumb 3.15826 -32.3024
lclavicle -1.34776e-013 -6.36111e-015
lhumerus 5.5745 -6.17984 52.0594
lradius 39.1844
lwrist -43.7829
lhand -8.63071 41.7101
lfingers 7.12502
lthumb 17.3019 70.96
rfemur -13.2669 -8.95208 16.3248
rtibia 34.4138
rfoot -32.6319 -17.5182
rtoes 13.2999
lfemur -19.8969 1.10853 -23.2406
ltibia 23.5313
lfoot -6.75824 -6.26975
ltoes -10.3232
